<svg width="0" height="0" class="hidden">
  <symbol fill="none" xmlns="http://www.w3.org/2000/svg" viewBox="0 0 24 24" id="calories">
    <path d="M14.5 10.0003C14.5 9.20875 15.5528 8.99895 15.8321 9.73957C16.5077 11.5311 17 13.1337 17 14.0002C17 16.7616 14.7614 19.0002 12 19.0002C9.23858 19.0002 7 16.7616 7 14.0002C7 13.0693 7.56822 11.2887 8.32156 9.33698C9.29743 6.80879 9.78536 5.54469 10.3877 5.4766C10.5804 5.45482 10.7907 5.49399 10.9626 5.58371C11.5 5.86413 11.5 7.24285 11.5 10.0003C11.5 10.8287 12.1716 11.5003 13 11.5003C13.8284 11.5003 14.5 10.8287 14.5 10.0003Z" stroke="#222222"></path>
    <path d="M11 19L10.7372 18.343C10.2816 17.204 10.4737 15.9079 11.24 14.95V14.95C11.6296 14.463 12.3704 14.463 12.76 14.95V14.95C13.5263 15.9079 13.7184 17.204 13.2628 18.343L13 19" stroke="#222222"></path>
  </symbol>
  <symbol xmlns="http://www.w3.org/2000/svg" fill="none" stroke="#000000" stroke-width="1.6640000000000001" viewBox="-1.28 -1.28 66.56 66.56" id="time">
    <g id="SVGRepo_bgCarrier" stroke-width="0"></g>
    <g id="SVGRepo_tracerCarrier" stroke-linecap="round" stroke-linejoin="round"></g>
    <g id="SVGRepo_iconCarrier">
      <circle cx="32" cy="32" r="24"></circle>
      <polyline points="40 44 32 32 32 16"></polyline>
    </g>
  </symbol>
  <symbol xmlns="http://www.w3.org/2000/svg" viewBox="0 0 124 124" id="g">
    <circle cx="62" cy="62" r="62"></circle>
    <path d="M63 60.3617L63 27.6383C63 27.2859 62.552 27 62 27C61.448 27 61 27.2859 61 27.6383L61 60.3617C61 60.7141 61.448 61 62 61C62.552 61 63 60.7141 63 60.3617Z" fill="white"></path>
    <path d="M72.407 37.759C72.407 37.6535 72.3685 37.548 72.2924 37.4673L62.4565 27.1359C62.3827 27.0593 62.2831 27.0156 62.1788 27.0156C62.0744 27.0156 61.9748 27.0593 61.9011 27.1359L52.0698 37.4681C51.9168 37.6288 51.9168 37.89 52.0698 38.0507C52.2228 38.2114 52.4715 38.2114 52.6244 38.0507L62.1788 28.0103L71.737 38.0507C71.89 38.2114 72.1387 38.2114 72.2917 38.0507C72.3685 37.9699 72.407 37.8645 72.407 37.759Z" stroke="white" stroke-width="0.681818"></path>
    <path d="M34.8 89H35.988V83.366H43.422V89H44.592V76.76H43.422V82.286H35.988V76.76H34.8V89ZM50.6965 80.954C49.6885 80.954 48.6625 81.206 47.5825 81.71L47.9605 82.646C48.8425 82.232 49.7245 81.98 50.5885 81.98C51.8125 81.98 52.6045 82.538 52.6045 83.654V84.194C52.1905 84.14 51.7405 84.122 51.1465 84.122C48.8065 84.122 47.1685 85.148 47.1685 86.93C47.1685 88.298 48.1585 89.144 49.7065 89.144C51.1105 89.144 52.1365 88.514 52.7125 87.56L52.9105 89H53.7205V83.708C53.7205 81.908 52.5145 80.954 50.6965 80.954ZM49.8865 88.118C48.8965 88.118 48.3205 87.65 48.3205 86.858C48.3205 85.688 49.4365 85.04 51.3085 85.04C51.8305 85.04 52.1725 85.058 52.6045 85.112C52.5505 86.93 51.5245 88.118 49.8865 88.118ZM61.2358 84.914C61.9198 84.59 62.3338 84.032 62.3338 83.15C62.3338 81.872 61.3618 81.044 59.8318 81.044H56.4118V89H60.1378C61.6858 89 62.7118 88.208 62.7118 86.822C62.7118 85.814 62.1358 85.166 61.2358 84.914ZM59.8138 82.034C60.8038 82.034 61.2358 82.592 61.2358 83.24C61.2358 83.906 60.8038 84.464 59.8138 84.464H57.5098V82.034H59.8138ZM60.1198 88.01H57.5098V85.454H60.1198C61.1458 85.454 61.6138 86.012 61.6138 86.732C61.6138 87.47 61.1458 88.01 60.1198 88.01ZM68.2873 80.846C65.9293 80.846 64.2733 82.7 64.2733 85.004C64.2733 87.47 65.9653 89.198 68.3773 89.198C69.6373 89.198 70.6093 88.766 71.4193 87.992L70.7893 87.2C70.1773 87.83 69.4753 88.172 68.3593 88.172C66.8653 88.172 65.5693 87.164 65.3893 85.472H71.7613C71.7973 85.202 71.8153 84.95 71.8153 84.698C71.8153 82.376 70.5013 80.846 68.2873 80.846ZM68.2693 81.872C69.7273 81.872 70.6993 82.808 70.7353 84.5H65.4253C65.6413 82.916 66.7933 81.872 68.2693 81.872ZM78.1132 80.882C76.7632 80.882 75.6832 81.458 74.9992 82.376L74.7652 81.044H73.9372V92.96H75.0352V89.828C75.0352 89.036 75.0172 88.298 74.9992 87.686C75.6652 88.586 76.7812 89.18 78.0952 89.18C80.3812 89.18 82.0372 87.434 82.0372 84.986C82.0372 82.61 80.3812 80.882 78.1132 80.882ZM78.0232 88.154C76.2592 88.154 74.9812 86.876 74.9812 84.986C74.9812 83.168 76.2412 81.908 78.0232 81.908C79.7332 81.908 80.9392 83.204 80.9392 85.04C80.9392 86.858 79.7332 88.154 78.0232 88.154ZM82.8274 89H84.0514L85.7074 86.696C85.9594 86.354 86.1574 86.03 86.4094 85.616C86.6434 86.03 86.8414 86.336 87.0934 86.678L88.7314 89H89.9914V88.964L87.0394 84.806L89.7034 81.08V81.044H88.4794L87.0574 83.024C86.8594 83.312 86.6254 83.654 86.4094 84.014C86.1934 83.636 85.9954 83.33 85.7794 83.042L84.3754 81.044H83.1154V81.08L85.7794 84.806L82.8274 88.964V89Z" fill="white"></path>
  </symbol>
  <symbol xmlns="http://www.w3.org/2000/svg" viewBox="0 0 50 50" id="iconUp">
    <circle cx="25" cy="25" r="25"></circle>
    <path d="M44.7697 33.6479L25.5931 15.2342C25.2679 14.9219 24.7426 14.9219 24.4175 15.2342L5.23251 33.6479C4.9157 33.9682 4.92399 34.4725 5.24916 34.7767C5.57432 35.073 6.08295 35.073 6.40812 34.7767L25.0011 16.9315L43.5858 34.7767C43.9193 35.0809 44.4446 35.073 44.7614 34.7608C45.0781 34.4484 45.0781 33.9601 44.7697 33.6479Z" fill="white"></path>
  </symbol>
</svg>